<svg xmlns="http://www.w3.org/2000/svg" width="980" height="648" viewBox="0 0 980 648" font-family="system-ui, -apple-system, 'Segoe UI', Roboto, 'Helvetica Neue', Arial, sans-serif">
  <defs>
    <marker id="m" viewBox="0 0 10 10" refX="9" refY="5" markerWidth="7" markerHeight="7" orient="auto">
      <path d="M 0 0 L 10 5 L 0 10 z" fill="#475569"/>
    </marker>
    <marker id="mr" viewBox="0 0 10 10" refX="9" refY="5" markerWidth="7" markerHeight="7" orient="auto">
      <path d="M 0 0 L 10 5 L 0 10 z" fill="#b91c1c"/>
    </marker>
  </defs>
  <rect width="980" height="648" fill="#ffffff"/>
  <text x="490" y="34" text-anchor="middle" font-size="19" font-weight="600" fill="#0f172a">Символ, кодовая точка, байты — и откуда берётся кракозябра</text>
  <rect x="24" y="54" width="932" height="248" rx="10" fill="#f8fafc" stroke="#e2e8f0" stroke-width="2"/>
  <text x="44" y="84" font-size="15" font-weight="600" fill="#0f172a">1. Как символ превращается в байты</text>
  <rect x="54" y="140" width="90" height="64" rx="8" fill="#ffffff" stroke="#475569" stroke-width="2"/>
  <text x="99" y="184" text-anchor="middle" font-size="30" fill="#0f172a">П</text>
  <text x="99" y="226" text-anchor="middle" font-size="12" fill="#64748b">символ (str)</text>
  <line x1="152" y1="172" x2="194" y2="172" stroke="#475569" stroke-width="2" marker-end="url(#m)"/>
  <rect x="204" y="140" width="180" height="64" rx="8" fill="#ede9fe" stroke="#6d28d9" stroke-width="2"/>
  <text x="294" y="181" text-anchor="middle" font-size="22" font-family="ui-monospace, 'DejaVu Sans Mono', 'Courier New', monospace" fill="#5b21b6">U+041F</text>
  <text x="294" y="226" text-anchor="middle" font-size="12" fill="#64748b">кодовая точка:</text>
  <text x="294" y="243" text-anchor="middle" font-size="12" fill="#64748b">номер в таблице Unicode</text>
  <line x1="392" y1="158" x2="466" y2="128" stroke="#475569" stroke-width="2" marker-end="url(#m)"/>
  <line x1="392" y1="188" x2="466" y2="220" stroke="#475569" stroke-width="2" marker-end="url(#m)"/>
  <rect x="476" y="96" width="180" height="58" rx="8" fill="#dbeafe" stroke="#1d4ed8" stroke-width="2"/>
  <text x="566" y="133" text-anchor="middle" font-size="22" font-family="ui-monospace, 'DejaVu Sans Mono', 'Courier New', monospace" fill="#1d4ed8">D0 9F</text>
  <text x="676" y="119" font-size="14" font-family="ui-monospace, 'DejaVu Sans Mono', 'Courier New', monospace" fill="#1d4ed8">.encode("utf-8")</text>
  <text x="676" y="141" font-size="13" fill="#475569">два байта на букву</text>
  <rect x="476" y="196" width="180" height="58" rx="8" fill="#ffedd5" stroke="#c2410c" stroke-width="2"/>
  <text x="566" y="233" text-anchor="middle" font-size="22" font-family="ui-monospace, 'DejaVu Sans Mono', 'Courier New', monospace" fill="#c2410c">CF</text>
  <text x="676" y="219" font-size="14" font-family="ui-monospace, 'DejaVu Sans Mono', 'Courier New', monospace" fill="#c2410c">.encode("cp1251")</text>
  <text x="676" y="241" font-size="13" fill="#475569">один байт на букву</text>
  <text x="44" y="285" font-size="13" fill="#475569">Кодовая точка отвечает на вопрос «какой это символ», кодировка — «какими байтами его записать». Точка одна, байты разные.</text>
  <rect x="24" y="318" width="932" height="280" rx="10" fill="#fef2f2" stroke="#fecaca" stroke-width="2"/>
  <text x="44" y="348" font-size="15" font-weight="600" fill="#b91c1c">2. Кракозябра: те же байты прочитаны не тем правилом</text>
  <text x="44" y="390" font-size="13" fill="#475569">было:</text>
  <rect x="104" y="366" width="126" height="34" rx="6" fill="#ffffff" stroke="#475569" stroke-width="2"/>
  <text x="167" y="390" text-anchor="middle" font-size="17" fill="#0f172a">Привет</text>
  <text x="246" y="390" font-size="13" fill="#475569">— 6 символов типа str</text>
  <text x="44" y="437" font-size="13" font-family="ui-monospace, 'DejaVu Sans Mono', 'Courier New', monospace" fill="#1d4ed8">.encode("utf-8")</text>
  <rect x="230" y="414" width="48" height="34" rx="5" fill="#dbeafe" stroke="#1d4ed8" stroke-width="1.5"/>
  <text x="254" y="437" text-anchor="middle" font-size="14" font-family="ui-monospace, 'DejaVu Sans Mono', 'Courier New', monospace" fill="#1d4ed8">D0</text>
  <rect x="282" y="414" width="48" height="34" rx="5" fill="#dbeafe" stroke="#1d4ed8" stroke-width="1.5"/>
  <text x="306" y="437" text-anchor="middle" font-size="14" font-family="ui-monospace, 'DejaVu Sans Mono', 'Courier New', monospace" fill="#1d4ed8">9F</text>
  <rect x="334" y="414" width="48" height="34" rx="5" fill="#dbeafe" stroke="#1d4ed8" stroke-width="1.5"/>
  <text x="358" y="437" text-anchor="middle" font-size="14" font-family="ui-monospace, 'DejaVu Sans Mono', 'Courier New', monospace" fill="#1d4ed8">D1</text>
  <rect x="386" y="414" width="48" height="34" rx="5" fill="#dbeafe" stroke="#1d4ed8" stroke-width="1.5"/>
  <text x="410" y="437" text-anchor="middle" font-size="14" font-family="ui-monospace, 'DejaVu Sans Mono', 'Courier New', monospace" fill="#1d4ed8">80</text>
  <rect x="438" y="414" width="48" height="34" rx="5" fill="#dbeafe" stroke="#1d4ed8" stroke-width="1.5"/>
  <text x="462" y="437" text-anchor="middle" font-size="14" font-family="ui-monospace, 'DejaVu Sans Mono', 'Courier New', monospace" fill="#1d4ed8">D0</text>
  <rect x="490" y="414" width="48" height="34" rx="5" fill="#dbeafe" stroke="#1d4ed8" stroke-width="1.5"/>
  <text x="514" y="437" text-anchor="middle" font-size="14" font-family="ui-monospace, 'DejaVu Sans Mono', 'Courier New', monospace" fill="#1d4ed8">B8</text>
  <rect x="542" y="414" width="48" height="34" rx="5" fill="#dbeafe" stroke="#1d4ed8" stroke-width="1.5"/>
  <text x="566" y="437" text-anchor="middle" font-size="14" font-family="ui-monospace, 'DejaVu Sans Mono', 'Courier New', monospace" fill="#1d4ed8">D0</text>
  <rect x="594" y="414" width="48" height="34" rx="5" fill="#dbeafe" stroke="#1d4ed8" stroke-width="1.5"/>
  <text x="618" y="437" text-anchor="middle" font-size="14" font-family="ui-monospace, 'DejaVu Sans Mono', 'Courier New', monospace" fill="#1d4ed8">B2</text>
  <rect x="646" y="414" width="48" height="34" rx="5" fill="#dbeafe" stroke="#1d4ed8" stroke-width="1.5"/>
  <text x="670" y="437" text-anchor="middle" font-size="14" font-family="ui-monospace, 'DejaVu Sans Mono', 'Courier New', monospace" fill="#1d4ed8">D0</text>
  <rect x="698" y="414" width="48" height="34" rx="5" fill="#dbeafe" stroke="#1d4ed8" stroke-width="1.5"/>
  <text x="722" y="437" text-anchor="middle" font-size="14" font-family="ui-monospace, 'DejaVu Sans Mono', 'Courier New', monospace" fill="#1d4ed8">B5</text>
  <rect x="750" y="414" width="48" height="34" rx="5" fill="#dbeafe" stroke="#1d4ed8" stroke-width="1.5"/>
  <text x="774" y="437" text-anchor="middle" font-size="14" font-family="ui-monospace, 'DejaVu Sans Mono', 'Courier New', monospace" fill="#1d4ed8">D1</text>
  <rect x="802" y="414" width="48" height="34" rx="5" fill="#dbeafe" stroke="#1d4ed8" stroke-width="1.5"/>
  <text x="826" y="437" text-anchor="middle" font-size="14" font-family="ui-monospace, 'DejaVu Sans Mono', 'Courier New', monospace" fill="#1d4ed8">82</text>
  <text x="860" y="437" font-size="13" fill="#475569">12 байт</text>
  <line x1="254" y1="450" x2="254" y2="486" stroke="#b91c1c" stroke-width="1.5" marker-end="url(#mr)"/>
  <line x1="306" y1="450" x2="306" y2="486" stroke="#b91c1c" stroke-width="1.5" marker-end="url(#mr)"/>
  <line x1="358" y1="450" x2="358" y2="486" stroke="#b91c1c" stroke-width="1.5" marker-end="url(#mr)"/>
  <line x1="410" y1="450" x2="410" y2="486" stroke="#b91c1c" stroke-width="1.5" marker-end="url(#mr)"/>
  <line x1="462" y1="450" x2="462" y2="486" stroke="#b91c1c" stroke-width="1.5" marker-end="url(#mr)"/>
  <line x1="514" y1="450" x2="514" y2="486" stroke="#b91c1c" stroke-width="1.5" marker-end="url(#mr)"/>
  <line x1="566" y1="450" x2="566" y2="486" stroke="#b91c1c" stroke-width="1.5" marker-end="url(#mr)"/>
  <line x1="618" y1="450" x2="618" y2="486" stroke="#b91c1c" stroke-width="1.5" marker-end="url(#mr)"/>
  <line x1="670" y1="450" x2="670" y2="486" stroke="#b91c1c" stroke-width="1.5" marker-end="url(#mr)"/>
  <line x1="722" y1="450" x2="722" y2="486" stroke="#b91c1c" stroke-width="1.5" marker-end="url(#mr)"/>
  <line x1="774" y1="450" x2="774" y2="486" stroke="#b91c1c" stroke-width="1.5" marker-end="url(#mr)"/>
  <line x1="826" y1="450" x2="826" y2="486" stroke="#b91c1c" stroke-width="1.5" marker-end="url(#mr)"/>
  <text x="44" y="519" font-size="13" font-family="ui-monospace, 'DejaVu Sans Mono', 'Courier New', monospace" fill="#b91c1c">.decode("cp1251")</text>
  <rect x="230" y="496" width="48" height="34" rx="5" fill="#ffffff" stroke="#b91c1c" stroke-width="1.5"/>
  <text x="254" y="520" text-anchor="middle" font-size="16" fill="#b91c1c">Р</text>
  <rect x="282" y="496" width="48" height="34" rx="5" fill="#ffffff" stroke="#b91c1c" stroke-width="1.5"/>
  <text x="306" y="520" text-anchor="middle" font-size="16" fill="#b91c1c">џ</text>
  <rect x="334" y="496" width="48" height="34" rx="5" fill="#ffffff" stroke="#b91c1c" stroke-width="1.5"/>
  <text x="358" y="520" text-anchor="middle" font-size="16" fill="#b91c1c">С</text>
  <rect x="386" y="496" width="48" height="34" rx="5" fill="#ffffff" stroke="#b91c1c" stroke-width="1.5"/>
  <text x="410" y="520" text-anchor="middle" font-size="16" fill="#b91c1c">Ђ</text>
  <rect x="438" y="496" width="48" height="34" rx="5" fill="#ffffff" stroke="#b91c1c" stroke-width="1.5"/>
  <text x="462" y="520" text-anchor="middle" font-size="16" fill="#b91c1c">Р</text>
  <rect x="490" y="496" width="48" height="34" rx="5" fill="#ffffff" stroke="#b91c1c" stroke-width="1.5"/>
  <text x="514" y="520" text-anchor="middle" font-size="16" fill="#b91c1c">ё</text>
  <rect x="542" y="496" width="48" height="34" rx="5" fill="#ffffff" stroke="#b91c1c" stroke-width="1.5"/>
  <text x="566" y="520" text-anchor="middle" font-size="16" fill="#b91c1c">Р</text>
  <rect x="594" y="496" width="48" height="34" rx="5" fill="#ffffff" stroke="#b91c1c" stroke-width="1.5"/>
  <text x="618" y="520" text-anchor="middle" font-size="16" fill="#b91c1c">І</text>
  <rect x="646" y="496" width="48" height="34" rx="5" fill="#ffffff" stroke="#b91c1c" stroke-width="1.5"/>
  <text x="670" y="520" text-anchor="middle" font-size="16" fill="#b91c1c">Р</text>
  <rect x="698" y="496" width="48" height="34" rx="5" fill="#ffffff" stroke="#b91c1c" stroke-width="1.5"/>
  <text x="722" y="520" text-anchor="middle" font-size="16" fill="#b91c1c">µ</text>
  <rect x="750" y="496" width="48" height="34" rx="5" fill="#ffffff" stroke="#b91c1c" stroke-width="1.5"/>
  <text x="774" y="520" text-anchor="middle" font-size="16" fill="#b91c1c">С</text>
  <rect x="802" y="496" width="48" height="34" rx="5" fill="#ffffff" stroke="#b91c1c" stroke-width="1.5"/>
  <text x="826" y="520" text-anchor="middle" font-size="16" fill="#b91c1c">‡</text>
  <text x="860" y="520" font-size="13" fill="#475569">12 символов</text>
  <text x="44" y="573" font-size="13" fill="#475569">стало:</text>
  <rect x="104" y="549" width="230" height="34" rx="6" fill="#ffffff" stroke="#b91c1c" stroke-width="2"/>
  <text x="219" y="573" text-anchor="middle" font-size="17" fill="#b91c1c">РџСЂРёРІРµС‚</text>
  <text x="350" y="573" font-size="13" fill="#475569">— каждому байту нашёлся символ cp1251, поэтому ошибка тихая</text>
  <text x="30" y="628" font-size="13" fill="#64748b">Байты не испорчены — испорчено правило чтения, поэтому порча обратима: .encode("cp1251").decode("utf-8") вернёт «Привет».</text>
</svg>
